<svg xmlns="http://www.w3.org/2000/svg" viewBox="0 0 800 520">
  <rect width="800" height="520" fill="#123f2a"/>
  <path d="M70 110H520V360H70z" fill="none" stroke="#f6f1de" stroke-width="9" opacity=".42"/>
  <path d="M110 160H480M110 215H480M110 270H480" stroke="#2e7350" stroke-width="8" opacity=".7"/>
  <rect x="135" y="330" width="340" height="76" rx="8" fill="#f2b705" opacity=".78"/>
  <path d="M165 355h150v34H165zM315 365h45l35 24h-80z" fill="#123f2a" opacity=".95"/>
  <circle cx="205" cy="406" r="22" fill="#123f2a"/>
  <circle cx="385" cy="406" r="22" fill="#123f2a"/>
  <path d="M590 120h90v90h-90zM590 245h90v90h-90zM590 370h90v90h-90z" fill="none" stroke="#f2b705" stroke-width="8" opacity=".72"/>
  <path d="M615 165h40M615 290h40M615 415h40" stroke="#f6f1de" stroke-width="8" stroke-linecap="round" opacity=".7"/>
</svg>
